PathFileType	4	(X/Y/Z)	\\Move.snu.ac.kr\motion\Animal\091204_091205_Bird\091205_bird\Project 2\Capture day 2\Session 1\pigeon_027.trc
DataRate	CameraRate	NumFrames	NumMarkers	Units	OrigDataRate	OrigDataStartFrame	OrigNumFrames
240.0	240.0	10	14	mm	240.0	119	2723
Frame#	Time	14MarkersBird:Head			14MarkersBird:C_back			14MarkersBird:Spine			14MarkersBird:L-shoulder			14MarkersBird:L-elbow			14MarkersBird:L-wrist			14MarkersBird:L-hand			14MarkersBird:R-shoulder			14MarkersBird:R-elbow			14MarkersBird:R-Wrist			14MarkersBird:R-hand			14MarkersBird:C_Tail			14MarkersBird:L-Tale			14MarkersBird:R-Tale			
		X1	Y1	Z1	X2	Y2	Z2	X3	Y3	Z3	X4	Y4	Z4	X5	Y5	Z5	X6	Y6	Z6	X7	Y7	Z7	X8	Y8	Z8	X9	Y9	Z9	X10	Y10	Z10	X11	Y11	Z11	X12	Y12	Z12	X13	Y13	Z13	X14	Y14	Z14	

1532	6.379	-932.73120	1487.97217	622.08008	-931.18311	1496.07629	565.43646	-919.95746	1498.08179	511.13229	-909.82001	1493.96558	595.34985	-903.43256	1516.23096	562.37415	-893.50446	1529.81677	602.21912	-869.54352	1516.28296	604.49927	-952.20917	1477.97473	586.81146	-962.15216	1493.58813	552.62714	-991.04108	1486.00366	581.14703	-997.97003	1450.93762	582.98926	-857.47821	1448.06335	412.04846	-817.08386	1511.89209	489.70447	-960.11676	1410.17761	441.04382	
1533	6.383	-932.77148	1485.43689	628.53052	-930.58398	1493.95215	572.47809	-918.66156	1496.01392	518.03876	-909.52087	1491.66858	602.19507	-908.62054	1514.98840	567.87048	-897.41370	1533.86267	605.29578	-870.06293	1526.63440	601.25641	-951.07806	1477.48425	593.29645	-957.04095	1497.58240	560.06854	-990.98523	1493.97949	583.64362	-1006.07117	1462.71240	576.53033	-854.55060	1445.79651	420.03229	-815.77814	1510.46619	498.92447	-959.79871	1408.62146	448.16608	
1534	6.387	-932.91077	1482.95837	634.97845	-930.02887	1491.91846	579.44507	-917.30853	1493.74353	524.81683	-909.50769	1489.44531	609.11243	-913.26880	1512.68091	573.78510	-902.16418	1536.53760	608.55164	-874.60760	1536.69592	598.78857	-949.96710	1476.63428	599.82990	-951.86969	1499.76794	568.14496	-988.80835	1501.55298	587.55377	-1010.31885	1477.85571	571.77667	-851.86847	1443.40015	427.80679	-814.69720	1509.22363	507.65738	-960.27032	1407.41150	455.22626	
1535	6.392	-933.09424	1480.58276	641.45013	-929.41431	1489.84497	586.27649	-915.88788	1491.24060	531.45569	-909.63617	1487.16504	615.93256	-916.98798	1509.68567	580.13574	-907.20184	1538.11157	612.09338	-882.61981	1545.73291	597.99042	-949.02991	1475.24585	606.31213	-947.29791	1500.35522	576.44623	-985.31439	1508.23425	592.78290	-1010.23511	1494.96338	569.97791	-849.49451	1440.90259	435.26291	-813.90552	1508.24622	515.66388	-961.32837	1406.37769	462.29623	
1536	6.396	-933.26959	1478.33447	647.93872	-928.70520	1487.61243	592.94580	-914.39929	1488.46765	537.99219	-909.77148	1484.76550	622.58649	-919.79034	1506.40845	586.98175	-912.00464	1538.80994	616.02197	-893.10437	1552.94189	599.06836	-948.33191	1473.35388	612.68420	-943.73541	1499.85315	584.78455	-981.31238	1513.78699	599.11060	-1006.23206	1512.14319	571.73480	-847.51050	1438.38391	442.26089	-813.38110	1507.41711	522.89008	-962.75781	1405.43042	469.36411	
1537	6.400	-933.43024	1476.12524	654.41803	-927.92590	1485.21021	599.50177	-912.84827	1485.47424	544.45618	-909.82690	1482.27991	629.09058	-921.87164	1503.17578	594.45752	-916.11420	1538.86060	620.60126	-904.64349	1557.67798	601.91699	-947.84930	1471.11682	618.92883	-941.26727	1498.78992	593.15875	-977.54578	1517.97192	606.33063	-999.68488	1527.49524	577.04498	-846.02777	1435.95557	448.65314	-812.97510	1506.36230	529.54651	-964.34723	1404.54688	476.32761	
1538	6.404	-933.61810	1473.82202	660.86298	-927.14056	1482.66858	605.89441	-911.27631	1482.23608	550.98157	-909.75232	1479.77710	635.47571	-923.31842	1500.24060	602.66748	-919.04626	1538.54565	626.15765	-915.36517	1559.82703	606.48230	-947.52539	1468.68164	625.04962	-939.77625	1497.40723	601.72131	-974.79083	1520.37610	614.11774	-992.77582	1539.47290	585.37115	-845.13977	1433.70154	454.37656	-812.47534	1504.66687	536.02747	-965.90027	1403.74146	483.06567	
1539	6.408	-933.88275	1471.34631	667.25604	-926.23175	1479.85132	612.03851	-909.84827	1478.36743	557.83813	-909.52368	1477.30212	641.78308	-923.93390	1497.80493	611.40088	-920.15198	1538.00928	632.75391	-923.22327	1560.01709	612.88104	-947.32880	1466.11450	631.05823	-939.21411	1495.59631	610.61395	-973.81689	1520.51245	621.90271	-988.02075	1547.06311	595.64130	-844.84625	1431.61475	459.54291	-811.74310	1502.15100	542.70178	-967.28400	1403.05371	489.49820	
1540	6.412	-934.24243	1468.71509	673.57172	-925.14502	1476.71790	617.85168	-908.59845	1474.44788	564.65039	-909.13910	1474.85706	648.07599	-923.40039	1495.90552	620.05957	-918.69830	1537.10583	640.11993	-926.49567	1559.35950	621.27356	-947.26825	1463.42041	636.99030	-939.72058	1493.16907	619.57910	-975.11176	1518.07898	629.01947	-987.50354	1549.70972	606.34033	-845.00348	1429.58484	464.44553	-810.80688	1498.95203	549.75317	-968.45367	1402.52234	495.61438	
1541	6.417	-934.67346	1466.00928	679.80566	-923.96729	1473.38440	623.43549	-907.52234	1470.79761	571.17078	-908.62616	1472.39270	654.42157	-921.58954	1494.36011	628.10999	-914.23663	1535.50293	647.92761	-924.16821	1558.71973	631.60284	-947.37616	1460.58777	642.93835	-941.44031	1490.21497	627.63019	-978.66711	1513.06128	635.02112	-992.07050	1547.15063	615.92352	-845.34491	1427.46484	469.47656	-809.82391	1495.37561	557.12225	-969.42096	1402.13904	501.49225	
